<svg width="40" height="40" viewBox="0 0 40 40" fill="none" xmlns="http://www.w3.org/2000/svg"><rect x=".5" y=".5" width="39" height="39" rx="3.5" stroke="#E61F4D" stroke-opacity=".5"/><path d="M15.334 18.615c0 3.235 2.83 5.91 4.082 6.935h0c.18.148.27.221.403.259.105.03.258.03.362 0 .134-.038.224-.111.404-.259 1.252-1.025 4.082-3.7 4.082-6.935a4.59 4.59 0 0 0-1.367-3.263A4.693 4.693 0 0 0 20 14a4.693 4.693 0 0 0-3.3 1.352 4.59 4.59 0 0 0-1.366 3.263Z" stroke="#E61F4D" stroke-width="1.2" stroke-linecap="round" stroke-linejoin="round"/><circle cx="20" cy="19" r="1.5" stroke="#E61F4D" stroke-width="1.2"/></svg>