<svg width="40" height="40" viewBox="0 0 40 40" fill="none" xmlns="http://www.w3.org/2000/svg"><rect x=".5" y=".5" width="39" height="39" rx="3.5" stroke="#E61F4D" stroke-opacity=".5"/><path d="m14.145 16.061-.534-.272.534.272Zm.583-.582.272.534-.272-.534Zm0 9.042.272-.534-.272.534Zm-.583-.582-.534.272.534-.272Zm11.71 0 .534.272-.534-.272Zm-.583.582L25 23.987l.272.534Zm.583-8.46-.535.273.535-.273Zm-.583-.582.272-.535-.272.535ZM16.667 21.4a.6.6 0 1 0 0 1.2v-1.2Zm2.666 1.2a.6.6 0 0 0 0-1.2v1.2ZM14 17.4a.6.6 0 1 0 0 1.2v-1.2Zm12 1.2a.6.6 0 1 0 0-1.2v1.2Zm-.6-1.133v5.066h1.2v-5.066h-1.2Zm-1.533 6.6h-7.733v1.2h7.733v-1.2ZM14.6 22.533v-5.066h-1.2v5.066h1.2Zm1.534-6.6h7.733v-1.2h-7.733v1.2ZM14.6 17.467c0-.384 0-.635.016-.827.015-.185.042-.262.064-.306l-1.07-.545c-.122.241-.169.494-.19.753-.02.252-.02.561-.02.925h1.2Zm1.534-2.734c-.364 0-.673 0-.925.02-.26.022-.512.068-.753.191l.544 1.07c.044-.023.121-.05.306-.064.193-.016.444-.017.828-.017v-1.2Zm-1.454 1.6a.733.733 0 0 1 .32-.32l-.544-1.069c-.364.185-.66.481-.845.845l1.069.545Zm1.454 7.734c-.384 0-.635 0-.828-.017-.185-.015-.262-.04-.306-.063l-.544 1.069c.24.123.493.17.753.19.252.021.561.02.925.02v-1.2ZM13.4 22.533c0 .364 0 .672.02.925.021.26.068.512.19.753l1.07-.545c-.022-.044-.049-.12-.064-.306a11.385 11.385 0 0 1-.016-.827h-1.2Zm1.6 1.454a.734.734 0 0 1-.32-.32l-1.07.544c.186.364.482.66.846.845l.544-1.07Zm10.4-1.454c0 .384 0 .635-.016.827-.015.186-.041.262-.064.306l1.07.545a1.97 1.97 0 0 0 .19-.753c.02-.253.02-.561.02-.925h-1.2Zm-1.533 2.734c.363 0 .672 0 .924-.02.26-.022.512-.068.753-.191L25 23.986c-.044.023-.121.05-.306.064-.193.016-.444.017-.827.017v1.2Zm1.453-1.6a.734.734 0 0 1-.32.32l.544 1.069c.364-.185.66-.48.845-.845l-1.069-.545Zm1.28-6.2c0-.364 0-.672-.02-.925a1.969 1.969 0 0 0-.19-.753l-1.07.545c.023.044.049.12.064.306.016.192.016.443.016.827h1.2Zm-2.733-1.534c.383 0 .634 0 .826.017.186.015.262.04.306.063l.545-1.069a1.971 1.971 0 0 0-.753-.19c-.252-.021-.56-.02-.924-.02v1.2Zm2.522-.144a1.935 1.935 0 0 0-.845-.845L25 16.014c.138.07.25.182.32.32l1.07-.545ZM16.667 22.6h2.666v-1.2h-2.666v1.2ZM14 18.6h6v-1.2h-6v1.2Zm6 0h6v-1.2h-6v1.2Z" fill="#E61F4D"/></svg>