<svg width="16" height="16" viewBox="0 0 16 16" fill="none" xmlns="http://www.w3.org/2000/svg"><g clip-path="url(#a)"><rect width="16" height="16" rx="1.778" fill="#E61F4D"/><path d="M8.225 13.824h-.897v-1.336c-.879-.008-1.668-.2-2.367-.58v-1.676c.234.196.6.381 1.096.557.5.172.923.264 1.271.276V8.655c-.863-.308-1.5-.68-1.91-1.113-.406-.438-.61-.98-.61-1.629 0-.652.237-1.215.71-1.687.472-.477 1.076-.745 1.81-.803V2.252h.897V3.4c.867.04 1.521.178 1.963.416v1.641a4.475 4.475 0 0 0-1.963-.644v2.501c.894.34 1.543.715 1.945 1.125.406.41.61.93.61 1.559 0 .688-.227 1.248-.68 1.682-.454.43-1.079.685-1.875.767v1.377Zm-.897-8.988c-.605.113-.908.437-.908.973 0 .449.303.83.908 1.142V4.836Zm.897 6.2c.625-.098.937-.415.937-.95 0-.434-.312-.793-.937-1.078v2.027Z" fill="#fff"/></g><defs><clipPath id="a"><rect width="16" height="16" rx="1.778" fill="#fff"/></clipPath></defs></svg>