<svg width="40" height="40" viewBox="0 0 40 40" fill="none" xmlns="http://www.w3.org/2000/svg"><rect x=".5" y=".5" width="39" height="39" rx="3.5" stroke="#E61F4D" stroke-opacity=".5"/><path d="M17.999 23.333h4m-4-2h4M24.665 18h-2.933c-.374 0-.56 0-.703-.073a.666.666 0 0 1-.291-.291c-.073-.143-.073-.33-.073-.703V14m4 9.867v-5.431c0-.309 0-.463-.033-.61a1.334 1.334 0 0 0-.145-.37c-.074-.13-.18-.243-.39-.47l-2.132-2.302c-.233-.252-.35-.378-.488-.468a1.336 1.336 0 0 0-.401-.175C20.915 14 20.744 14 20.4 14h-2.934c-.747 0-1.12 0-1.406.145-.251.128-.455.332-.583.583-.145.285-.145.659-.145 1.405v7.734c0 .746 0 1.12.145 1.405.128.25.332.455.583.583.285.145.659.145 1.405.145h5.067c.747 0 1.12 0 1.405-.145.251-.128.455-.332.583-.583.146-.285.145-.659.145-1.405Z" stroke="#E61F4D" stroke-width="1.2" stroke-linecap="round" stroke-linejoin="round"/></svg>