<svg width="40" height="40" viewBox="0 0 40 40" fill="none" xmlns="http://www.w3.org/2000/svg"><path d="M15.417 17.467a.7.7 0 1 0 0 1.4v-1.4Zm5.5 1.4a.7.7 0 1 0 0-1.4v1.4Zm-2.05-3.45a.7.7 0 1 0-1.4 0h1.4Zm-1.4 5.5a.7.7 0 1 0 1.4 0h-1.4Zm5.778 1.338a.7.7 0 0 0-.99.99l.99-.99Zm4.51 6.49a.7.7 0 0 0 .99-.99l-.99.99Zm-12.338-9.878h5.5v-1.4h-5.5v1.4Zm2.05-3.45v5.5h1.4v-5.5h-1.4Zm.7 8.466a5.717 5.717 0 0 1-5.717-5.716h-1.4a7.117 7.117 0 0 0 7.117 7.116v-1.4Zm-5.717-5.716a5.717 5.717 0 0 1 5.717-5.717v-1.4a7.117 7.117 0 0 0-7.117 7.117h1.4Zm5.717-5.717a5.717 5.717 0 0 1 5.716 5.717h1.4a7.117 7.117 0 0 0-7.116-7.117v1.4Zm5.716 5.717a5.717 5.717 0 0 1-5.716 5.716v1.4a7.117 7.117 0 0 0 7.116-7.116h-1.4Zm-1.628 5.078 5.5 5.5.99-.99-5.5-5.5-.99.99Z" fill="#CCC"/><rect x=".5" y=".5" width="39" height="39" rx="3.5" stroke="#CCC"/></svg>