<svg width="40" height="40" viewBox="0 0 40 40" fill="none" xmlns="http://www.w3.org/2000/svg"><rect x=".5" y=".5" width="39" height="39" rx="3.5" stroke="#E61F4D" stroke-opacity=".5"/><path d="M12.928 25.333h13.334m-4.75 0h3.416V16.8c0-.747 0-1.12-.145-1.405a1.334 1.334 0 0 0-.583-.583c-.285-.146-.658-.146-1.405-.146h-4.4c-.747 0-1.12 0-1.406.146-.25.128-.454.332-.582.583-.145.285-.145.658-.145 1.405v1.866m5.333 2.912v3.755h-7.333v-3.755c0-.35 0-.525.042-.688.037-.145.098-.282.18-.407.094-.14.225-.257.485-.491l1.534-1.378c.504-.453.755-.68 1.04-.765.251-.076.519-.076.77 0 .285.086.537.312 1.041.765l1.533 1.378c.26.234.391.35.485.491.082.125.144.262.18.407.043.163.043.338.043.688Z" stroke="#E61F4D" stroke-width="1.2" stroke-linecap="round" stroke-linejoin="round"/></svg>