<svg width="40" height="40" viewBox="0 0 40 40" fill="none" xmlns="http://www.w3.org/2000/svg"><rect x=".5" y=".5" width="39" height="39" rx="3.5" stroke="#E61F4D" stroke-opacity=".5"/><path d="m25.567 17.949-.244-.136a1.334 1.334 0 0 1-.567-.557l-.043-.076a1.333 1.333 0 0 1-.157-.683v-.013l.005-.278c.008-.457.011-.686-.053-.89a1.335 1.335 0 0 0-.277-.491c-.143-.16-.341-.274-.736-.502l-.002-.001-.33-.19c-.395-.227-.592-.341-.802-.385a1.334 1.334 0 0 0-.562.005c-.209.047-.404.163-.793.397l-.003.001-.236.142a1.334 1.334 0 0 1-.68.211H20h0-.086a1.333 1.333 0 0 1-.678-.21l-.004-.002-.237-.143h-.002c-.391-.236-.587-.354-.797-.4a1.336 1.336 0 0 0-.565-.005c-.21.044-.409.16-.805.39l-.325.188c-.394.229-.591.343-.734.503-.125.142-.22.309-.276.49-.063.204-.06.432-.052.888l.005.283v.085a1.335 1.335 0 0 1-.2.685h0a1.334 1.334 0 0 1-.568.558l-.24.133h0c-.402.223-.602.334-.748.492-.129.14-.227.306-.286.487-.067.204-.067.433-.066.89v.002l.001.375v.004c.001.453.002.68.069.882.06.18.157.345.285.484.145.157.344.267.74.488l.002.001.24.133.002.002a1.334 1.334 0 0 1 .57.565h0c.023.04.035.06.045.08.098.184.15.39.154.6v.091l-.005.272h0c-.008.457-.011.686.052.89.057.182.152.35.278.491.143.16.341.275.738.503l.329.19c.395.228.593.341.803.385.186.038.377.037.562-.005.209-.047.404-.164.793-.397l.003-.001.236-.142.075-.043c.185-.104.393-.161.605-.168h.173a1.332 1.332 0 0 1 .681.212l.238.143h0c.393.236.59.354.8.4.185.042.377.044.563.005.211-.044.41-.16.806-.39l.325-.188c.394-.229.591-.343.733-.503.126-.142.22-.309.277-.49.063-.204.06-.432.052-.888l-.005-.283V23.43c.002-.213.057-.423.157-.61.01-.02.021-.038.043-.075l.043-.074a1.334 1.334 0 0 1 .521-.482l.003-.002.241-.133c.402-.223.602-.334.748-.492.129-.14.226-.306.286-.487.067-.204.067-.434.066-.892l-.001-.375c-.001-.455-.002-.683-.069-.886a1.334 1.334 0 0 0-.285-.484c-.145-.157-.344-.268-.742-.49Z" stroke="#E61F4D" stroke-width="1.2" stroke-linecap="round" stroke-linejoin="round"/><circle cx="20" cy="20" r="2.5" stroke="#E61F4D"/></svg>