<svg width="143" height="32" viewBox="0 0 143 32" fill="none" xmlns="http://www.w3.org/2000/svg"><path d="M74.781 29.001h-5.71l-1.488-4.392h-7.859l-1.488 4.392h-5.583l7.893-21.698h6.343L74.781 29Zm-8.518-8.358L63.65 12.93l-2.606 7.714h5.219ZM96.97 29h-3.004c-2.822 0-2.141.293-3.636-2.169l-7.751-12.72v14.89h-5.057V9.106c.027-.5.23-.968.562-1.304a1.633 1.633 0 0 1 1.222-.5h3.09c1.22 0 1.725-.067 2.216.801l7.293 11.627V9.12c.025-.503.226-.976.561-1.316.335-.34.777-.52 1.23-.502h3.273v21.699ZM110.606 29.443a13.086 13.086 0 0 1-4.411-.749 9.448 9.448 0 0 1-3.474-2.132 9.559 9.559 0 0 1-2.25-3.532 13.852 13.852 0 0 1-.808-4.856 13.8 13.8 0 0 1 .768-4.706 10.209 10.209 0 0 1 2.215-3.606 9.407 9.407 0 0 1 3.462-2.245 12.554 12.554 0 0 1 4.512-.793 17.21 17.21 0 0 1 2.437.157c.68.09 1.354.221 2.02.396a15.48 15.48 0 0 1 1.745.621c.525.232.976.442 1.346.636l-2.909 3.577-.128-.075v.21a5.963 5.963 0 0 0-3.421-1.093 5.67 5.67 0 0 0-2.443.46 6.195 6.195 0 0 0-2.088 1.482 6.986 6.986 0 0 0-1.402 2.27 7.573 7.573 0 0 0-.493 2.698c0 .927.167 1.845.493 2.698a6.985 6.985 0 0 0 1.402 2.27c.6.645 1.31 1.15 2.088 1.483.779.333 1.61.49 2.443.459a5.958 5.958 0 0 0 3.442-1.063l.154-.134.122.164 2.761 3.39.087.12-1.63.748c-.503.218-1.018.403-1.542.554a17.83 17.83 0 0 1-1.966.463c-.837.12-1.681.173-2.525.157M142.087 7.302l-7.858 13.304V29h-5.536v-8.133l-7.407-12.563c-.674-1.1-.249-1.003 1.623-1.003h4.04l4.626 8.41 3.67-6.89c.835-1.572 1.253-1.497 2.478-1.497l4.364-.023ZM49.932 12.413h-9.77v3.127h9.063v5.103h-9.064v8.358h-5.528V9.113c.026-.5.227-.97.56-1.309a1.634 1.634 0 0 1 1.224-.502h13.515v5.11Z" fill="#333"/><path d="M27.077 9.622c-5.387-.314-9.831-.15-12.882 1.496-2.633 1.37-4.485 4.22-5.44 9.488 0 .12-.055.344-.102.643H0c.141-1.092.283-2.095.364-2.543 1.589-8.583 5.064-13.469 10.148-16.17C15.07.12 20.612-.232 27.077.112v9.51Z" fill="#E61F4D"/><path d="M24.498 21.25c-1.932-.233-6.343-.42-8.417 2.334-1.098 1.496-.923 5.873-.815 7.527H6.734c-.115-3.068 0-9.892 2.801-13.625 4.223-5.597 11.273-5.986 14.977-5.724l-.014 9.487Z" fill="#E61F4D"/></svg>