<svg width="40" height="40" viewBox="0 0 40 40" fill="none" xmlns="http://www.w3.org/2000/svg"><rect x=".5" y=".5" width="39" height="39" rx="3.5" stroke="#E61F4D" stroke-opacity=".5"/><path d="m14.667 16 5.485 4 5.181-4M26 17.467v5.066c0 .747 0 1.12-.145 1.406-.128.25-.332.454-.583.582-.285.146-.659.146-1.405.146h-7.733c-.747 0-1.12 0-1.406-.146a1.333 1.333 0 0 1-.583-.582C14 23.653 14 23.28 14 22.533v-5.066c0-.747 0-1.12.145-1.406.128-.25.332-.455.583-.582.285-.146.659-.146 1.406-.146h7.733c.746 0 1.12 0 1.405.146.25.127.455.331.583.582.145.285.145.659.145 1.406Z" stroke="#E61F4D" stroke-width="1.2" stroke-linecap="round" stroke-linejoin="round"/></svg>