<svg width="40" height="40" viewBox="0 0 40 40" fill="none" xmlns="http://www.w3.org/2000/svg"><rect x=".5" y=".5" width="39" height="39" rx="3.5" stroke="#E61F4D" stroke-opacity=".5"/><path d="m22.667 18-3.556 4-1.778-2M26 16.133v7.734c0 .746 0 1.12-.145 1.405-.128.25-.332.455-.583.583-.285.145-.659.145-1.405.145h-7.733c-.747 0-1.12 0-1.406-.145a1.334 1.334 0 0 1-.583-.583C14 24.987 14 24.613 14 23.867v-7.734c0-.746 0-1.12.145-1.405.128-.25.332-.455.583-.583.285-.145.659-.145 1.406-.145h7.733c.746 0 1.12 0 1.405.145.25.128.455.332.583.583.145.285.145.659.145 1.405Z" stroke="#E61F4D" stroke-width="1.2" stroke-linecap="round" stroke-linejoin="round"/></svg>