<svg width="22" height="22" viewBox="0 0 22 22" fill="none" xmlns="http://www.w3.org/2000/svg"><path d="M17.418 8.25H14.85c-1.027 0-1.54 0-1.933-.2a1.833 1.833 0 0 1-.8-.801c-.2-.392-.2-.906-.2-1.932V2.75m5.5 13.567V8.548c0-.448-.001-.672-.052-.883a1.83 1.83 0 0 0-.22-.53c-.112-.185-.27-.344-.588-.66l-2.865-2.866c-.317-.317-.475-.475-.66-.589a1.832 1.832 0 0 0-.53-.22c-.211-.05-.435-.05-.884-.05H7.518c-1.027 0-1.541 0-1.933.2a1.833 1.833 0 0 0-.801.801c-.2.392-.2.906-.2 1.932v10.634c0 1.026 0 1.54.2 1.932.176.345.456.625.8.801.393.2.907.2 1.934.2h6.966c1.027 0 1.54 0 1.932-.2.345-.176.626-.456.802-.801.2-.392.2-.906.2-1.932Z" stroke="#E61F4D" stroke-width="1.4" stroke-linecap="round" stroke-linejoin="round"/><rect x="1.25" y="10" width="14.5" height="7.5" rx="1" fill="#E61F4D"/><path d="M3.741 14.418V16h-.967v-4.538h1.562c1.129 0 1.693.478 1.693 1.436 0 .464-.17.837-.512 1.119-.34.279-.766.413-1.278.401h-.498Zm0-2.206v1.465h.42c.568 0 .852-.247.852-.742 0-.482-.282-.723-.844-.723H3.74ZM6.718 16v-4.538h1.567c1.611 0 2.417.737 2.417 2.212 0 .701-.225 1.264-.677 1.69-.45.424-1.033.636-1.746.636H6.718Zm.967-3.747v2.956h.527c.459 0 .82-.137 1.081-.41.262-.274.393-.644.393-1.11 0-.452-.137-.803-.41-1.055-.274-.254-.63-.381-1.067-.381h-.524Zm6.372 0h-1.62v1.166h1.49v.791h-1.49V16h-.967v-4.538h2.587v.79Z" fill="#fff"/></svg>