<svg width="20" height="20" viewBox="0 0 20 20" fill="none" xmlns="http://www.w3.org/2000/svg"><path d="M12.454 5.125a6.262 6.262 0 0 1 4.421 4.42M11.807 7.54a3.757 3.757 0 0 1 2.653 2.653M7.225 11.751a6.59 6.59 0 0 0 3.05 3.038.619.619 0 0 0 .612-.047l1.956-1.304a.625.625 0 0 1 .593-.055l3.66 1.569a.623.623 0 0 1 .374.648 3.75 3.75 0 0 1-3.72 3.275A10.625 10.625 0 0 1 3.125 8.25 3.75 3.75 0 0 1 6.4 4.53a.623.623 0 0 1 .648.375l1.57 3.662a.625.625 0 0 1-.052.589l-1.3 1.986a.62.62 0 0 0-.041.61v0Z" stroke="#E61F4D" stroke-width="1.5" stroke-linecap="round" stroke-linejoin="round"/></svg>