<svg width="40" height="40" viewBox="0 0 40 40" fill="none" xmlns="http://www.w3.org/2000/svg"><rect x=".5" y=".5" width="39" height="39" rx="3.5" stroke="#E61F4D" stroke-opacity=".5"/><path d="M18.335 14.838A1.333 1.333 0 0 0 17.097 14h-1.834c-.697 0-1.263.566-1.263 1.263C14 21.193 18.807 26 24.737 26c.698 0 1.263-.566 1.263-1.263v-1.834c0-.545-.332-1.036-.838-1.238l-1.757-.703a1.333 1.333 0 0 0-1.349.213l-.454.379a1.333 1.333 0 0 1-1.796-.082l-1.278-1.278a1.333 1.333 0 0 1-.082-1.796l.378-.454c.314-.376.396-.894.214-1.349l-.703-1.757Z" stroke="#E61F4D" stroke-width="1.2" stroke-linecap="round" stroke-linejoin="round"/></svg>