<svg width="40" height="40" viewBox="0 0 40 40" fill="none" xmlns="http://www.w3.org/2000/svg"><rect width="40" height="40" rx="4" fill="#FBDBE1"/><path d="m22.75 17.25-3.667 3.667-1.834-1.834m10.084-4.4v3.635c0 6.02-4.554 8.72-6.485 9.594-.205.093-.306.139-.538.179a2.567 2.567 0 0 1-.62 0 1.843 1.843 0 0 1-.54-.18c-1.93-.873-6.484-3.572-6.484-9.593v-3.635c0-1.027 0-1.54.2-1.932.176-.345.456-.625.8-.801.393-.2.907-.2 1.934-.2h8.8c1.026 0 1.54 0 1.931.2.345.176.626.456.802.801.2.392.2.905.2 1.932Z" stroke="#333" stroke-width="1.4" stroke-linecap="round" stroke-linejoin="round"/></svg>