<svg width="40" height="40" viewBox="0 0 40 40" fill="none" xmlns="http://www.w3.org/2000/svg"><rect x=".5" y=".5" width="39" height="39" rx="3.5" stroke="#E61F4D" stroke-opacity=".5"/><path d="M13.557 18.891a.333.333 0 0 1 .187-.576l4.002-.474a.334.334 0 0 0 .264-.192l1.688-3.66a.333.333 0 0 1 .605 0l1.688 3.66a.333.333 0 0 0 .264.192l4.002.474a.333.333 0 0 1 .187.576l-2.959 2.737a.333.333 0 0 0-.1.31l.785 3.953a.333.333 0 0 1-.49.355l-3.517-1.968a.333.333 0 0 0-.325 0l-3.517 1.968a.333.333 0 0 1-.49-.355l.785-3.954a.333.333 0 0 0-.1-.31l-2.96-2.736Z" stroke="#E61F4D" stroke-width="1.2" stroke-linecap="round" stroke-linejoin="round"/></svg>