<svg width="40" height="40" viewBox="0 0 40 40" fill="none" xmlns="http://www.w3.org/2000/svg"><rect x=".5" y=".5" width="39" height="39" rx="3.5" stroke="#E61F4D" stroke-opacity=".5"/><path d="M22.667 17.333a2.667 2.667 0 1 0-5.334 0M26 19.467V23.2c0 .747 0 1.12-.145 1.405-.128.251-.332.455-.583.583-.285.145-.659.145-1.405.145h-7.733c-.747 0-1.12 0-1.406-.145a1.333 1.333 0 0 1-.583-.583C14 24.32 14 23.947 14 23.2v-3.733c0-.747 0-1.12.145-1.406.128-.25.332-.455.583-.582.285-.146.659-.146 1.406-.146h7.733c.746 0 1.12 0 1.405.146.25.127.455.331.583.582.145.285.145.659.145 1.406Z" stroke="#E61F4D" stroke-width="1.2" stroke-linecap="round" stroke-linejoin="round"/></svg>