<svg width="40" height="40" viewBox="0 0 40 40" fill="none" xmlns="http://www.w3.org/2000/svg"><rect x=".5" y=".5" width="39" height="39" rx="3.5" stroke="#E61F4D" stroke-opacity=".5"/><path d="M24.667 18v.6a.6.6 0 0 0 .6-.6h-.6Zm-5.334 7.333v.6a.6.6 0 0 0 .6-.6h-.6Zm-5.188-.728-.534.273.534-.273Zm.583.583.272-.534-.272.534Zm0-10.376.272.535-.272-.535Zm-.583.583.535.272-.535-.272Zm10.377 0-.535.272.535-.272Zm-.583-.583.272-.534-.272.534ZM22 22.067a.6.6 0 0 0 0 1.2v-1.2Zm4 1.2a.6.6 0 1 0 0-1.2v1.2Zm-6.667-.667a.6.6 0 1 0 0-1.2v1.2ZM14 21.4a.6.6 0 1 0 0 1.2v-1.2Zm9.4 3.267a.6.6 0 1 0 1.2 0h-1.2Zm1.2-4a.6.6 0 0 0-1.2 0h1.2Zm-4.667-6a.6.6 0 1 0-1.2 0h1.2ZM14 17.4a.6.6 0 1 0 0 1.2v-1.2Zm11.267.6v-1.2h-1.2V18h1.2Zm-2.733-3.933h-6.4v1.2h6.4v-1.2ZM13.4 16.8v6.4h1.2v-6.4h-1.2Zm2.734 9.133h3.2v-1.2h-3.2v1.2ZM13.4 23.2c0 .364 0 .672.02.925.021.26.068.512.19.753l1.07-.545c-.022-.044-.049-.12-.064-.306a11.383 11.383 0 0 1-.016-.827h-1.2Zm2.734 1.533c-.384 0-.635 0-.828-.016-.185-.015-.262-.041-.306-.063l-.544 1.069c.24.123.493.169.753.19.252.02.561.02.925.02v-1.2Zm-2.523.145c.185.363.48.66.845.845l.544-1.07a.733.733 0 0 1-.32-.32l-1.07.545Zm2.523-10.811c-.364 0-.673 0-.925.02a1.97 1.97 0 0 0-.753.19l.544 1.07c.044-.023.121-.049.306-.064.193-.016.444-.016.828-.016v-1.2ZM14.6 16.8c0-.383 0-.634.016-.827.015-.185.042-.262.064-.306l-1.07-.545c-.122.242-.169.494-.19.754-.02.252-.02.56-.02.924h1.2Zm-.144-2.523c-.364.186-.66.482-.845.845l1.069.545a.732.732 0 0 1 .32-.32l-.544-1.07Zm10.81 2.523c0-.363.001-.672-.02-.924a1.97 1.97 0 0 0-.19-.754l-1.07.545c.023.044.05.12.065.306.015.192.016.444.016.827h1.2Zm-2.732-1.533c.383 0 .634 0 .826.016.185.015.262.041.306.064l.545-1.07a1.968 1.968 0 0 0-.753-.19c-.252-.02-.561-.02-.924-.02v1.2Zm2.522-.145a1.934 1.934 0 0 0-.845-.845l-.545 1.07c.138.07.25.182.32.32l1.07-.545ZM22 23.267h4v-1.2h-4v1.2ZM19.333 21.4H14v1.2h5.333v-1.2Zm5.267 3.267v-4h-1.2v4h1.2Zm-5.867-10v10.666h1.2V14.667h-1.2Zm5.934 2.733H14v1.2h10.667v-1.2Z" fill="#E61F4D"/></svg>