<svg width="16" height="17" viewBox="0 0 16 17" fill="none" xmlns="http://www.w3.org/2000/svg"><path d="m2.243 15.485.272-.535-.272.535Zm-.728-.728-.535.272.535-.272Zm12.97 0-.535-.273.535.273Zm-.729.728-.272-.535.272.535Zm0-12.97.273-.535-.273.535Zm.729.728-.535.273.535-.273ZM2.243 2.515l.272.535-.272-.535Zm-.728.728.534.273-.534-.273Zm9.818 9.09v-.6a.6.6 0 0 0-.6.6h.6Zm.002 0 .6.014a.6.6 0 0 0-.6-.614v.6Zm0 .002-.015.6a.6.6 0 0 0 .614-.586l-.6-.014Zm-.002 0h-.6a.6.6 0 0 0 .586.6l.014-.6ZM8 12.333v-.6a.6.6 0 0 0-.6.6H8Zm.001 0 .6.014a.6.6 0 0 0-.6-.614v.6Zm0 .002-.014.6a.6.6 0 0 0 .614-.586l-.6-.014Zm-.001 0h-.6a.6.6 0 0 0 .585.6l.015-.6Zm-3.334-.002v-.6a.6.6 0 0 0-.6.6h.6Zm.002 0 .6.014a.6.6 0 0 0-.6-.614v.6Zm0 .002-.014.6a.6.6 0 0 0 .614-.586l-.6-.014Zm-.002 0h-.6a.6.6 0 0 0 .586.6l.014-.6ZM11.335 9h.6a.6.6 0 0 0-.6-.6V9Zm0 .002-.015.6a.6.6 0 0 0 .615-.6h-.6Zm-.002 0h-.6a.6.6 0 0 0 .586.6l.014-.6Zm0-.002v-.6a.6.6 0 0 0-.6.6h.6ZM8 9v-.6a.6.6 0 0 0-.6.6H8ZM8 9l.6.014a.6.6 0 0 0-.6-.614V9Zm0 .002-.014.6a.6.6 0 0 0 .614-.586l-.6-.014Zm-.001 0h-.6a.6.6 0 0 0 .585.6l.015-.6ZM4.666 9v-.6a.6.6 0 0 0-.6.6h.6Zm.002 0 .6.014a.6.6 0 0 0-.6-.614V9Zm0 .002-.014.6a.6.6 0 0 0 .614-.586l-.6-.014Zm-.002 0h-.6a.6.6 0 0 0 .586.6l.014-.6ZM1.333 5.067a.6.6 0 0 0 0 1.2v-1.2Zm13.333 1.2a.6.6 0 1 0 0-1.2v1.2Zm-2.733-5.6a.6.6 0 1 0-1.2 0h1.2Zm-1.2 1.666a.6.6 0 1 0 1.2 0h-1.2ZM5.266.667a.6.6 0 0 0-1.2 0h1.2Zm-1.2 1.666a.6.6 0 0 0 1.2 0h-1.2Zm-.066.6h8v-1.2H4v1.2ZM14.066 5v8h1.2V5h-1.2ZM12 15.067H4v1.2h8v-1.2ZM1.933 13V5h-1.2v8h1.2ZM4 15.067c-.477 0-.798 0-1.046-.021-.241-.02-.36-.055-.439-.096l-.545 1.07c.277.14.571.196.886.222.308.025.687.025 1.144.025v-1.2ZM.733 13c0 .457 0 .835.025 1.143.025.316.08.61.222.886l1.07-.545c-.041-.08-.077-.197-.096-.438-.02-.248-.021-.57-.021-1.046h-1.2Zm1.782 1.95a1.066 1.066 0 0 1-.466-.466L.98 15.03c.217.427.564.773.99.99l.545-1.069ZM14.066 13c0 .477 0 .798-.02 1.046-.02.24-.055.359-.096.438l1.07.545c.14-.277.196-.57.222-.886.025-.308.024-.686.024-1.143h-1.2ZM12 16.267c.457 0 .835 0 1.143-.025.315-.026.609-.081.886-.223l-.545-1.069c-.08.04-.198.076-.438.096-.248.02-.57.02-1.046.02v1.2Zm1.95-1.783c-.102.2-.265.364-.466.466l.545 1.07c.426-.218.773-.564.99-.991l-1.069-.545ZM12 2.934c.476 0 .798 0 1.046.02.24.02.358.055.438.096l.545-1.07c-.277-.14-.57-.196-.886-.222-.308-.025-.686-.025-1.143-.025v1.2ZM15.266 5c0-.457 0-.836-.024-1.143-.026-.315-.081-.61-.223-.886l-1.069.545c.04.08.076.197.096.438.02.248.02.57.02 1.046h1.2Zm-1.782-1.95c.2.102.364.265.466.466l1.07-.545a2.268 2.268 0 0 0-.991-.99l-.545 1.069ZM4 1.733c-.457 0-.836 0-1.144.025-.315.026-.609.081-.886.222l.545 1.07c.08-.041.198-.076.439-.096.248-.02.57-.02 1.046-.02v-1.2ZM1.933 5c0-.477 0-.798.02-1.046.02-.24.056-.359.096-.438L.98 2.97c-.141.277-.197.57-.222.885C.733 4.164.733 4.543.733 5h1.2Zm.037-3.02a2.266 2.266 0 0 0-.99.99l1.07.546c.102-.201.265-.364.465-.466L1.97 1.98Zm9.363 10.953h.002v-1.2h-.002v1.2Zm-.598-.614v.002l1.2.028v-.002l-1.2-.028Zm.614-.584h-.002l-.028 1.2h.001l.029-1.2Zm.584.6v-.002h-1.2v.002h1.2ZM8 12.933H8v-1.2H8v1.2Zm-.598-.614v.002l1.2.028v-.002l-1.2-.028Zm.614-.584h-.002l-.029 1.2h.002l.029-1.2Zm.584.6v-.002H7.4v.002h1.2Zm-3.934.598h.002v-1.2h-.002v1.2Zm-.598-.614v.002l1.2.028v-.002l-1.2-.028Zm.614-.584h-.001l-.029 1.2h.002l.028-1.2Zm.584.6v-.002h-1.2v.002h1.2ZM10.735 9v.002h1.2V9h-1.2Zm.614-.598h-.002l-.028 1.2h.001l.029-1.2Zm.584.6V9h-1.2v.002h1.2Zm-.6.598h.002V8.4h-.002v1.2ZM8 9.6H8V8.4H8v1.2Zm-.598-.614v.002l1.2.028v-.002l-1.2-.028Zm.614-.584h-.002l-.029 1.2h.002l.029-1.2Zm.584.6V9H7.4v.002h1.2ZM4.666 9.6h.002V8.4h-.002v1.2Zm-.598-.614v.002l1.2.028v-.002l-1.2-.028Zm.614-.584h-.001l-.029 1.2h.002l.028-1.2Zm.584.6V9h-1.2v.002h1.2ZM1.333 6.267h13.333v-1.2H1.333v1.2Zm9.4-5.6v1.666h1.2V.667h-1.2Zm-6.667 0v1.666h1.2V.667h-1.2Z" fill="#333"/></svg>