<svg width="40" height="40" viewBox="0 0 40 40" fill="none" xmlns="http://www.w3.org/2000/svg"><rect x=".5" y=".5" width="39" height="39" rx="3.5" stroke="#E61F4D" stroke-opacity=".5"/><path d="m22 18.667-2.667 2.666L18 20m2.83-5.694.815.693c.205.175.46.28.728.302l1.066.085a1.28 1.28 0 0 1 1.175 1.175l.084 1.066c.022.268.128.523.302.729l.694.813a1.28 1.28 0 0 1 0 1.661l-.693.814a1.28 1.28 0 0 0-.303.729l-.085 1.066a1.28 1.28 0 0 1-1.174 1.174l-1.066.086a1.28 1.28 0 0 0-.729.301l-.813.694a1.281 1.281 0 0 1-1.662 0L18.355 25a1.28 1.28 0 0 0-.728-.301l-1.066-.086a1.28 1.28 0 0 1-1.174-1.174l-.086-1.066a1.281 1.281 0 0 0-.302-.729l-.693-.814a1.28 1.28 0 0 1 0-1.66l.694-.815c.174-.205.28-.46.301-.728l.085-1.066a1.28 1.28 0 0 1 1.175-1.175l1.066-.085c.268-.021.523-.127.729-.302l.813-.693a1.28 1.28 0 0 1 1.662 0Z" stroke="#E61F4D" stroke-width="1.2" stroke-linecap="round" stroke-linejoin="round"/></svg>