<svg width="40" height="40" viewBox="0 0 40 40" fill="none" xmlns="http://www.w3.org/2000/svg"><rect x=".5" y=".5" width="39" height="39" rx="3.5" stroke="#E61F4D" stroke-opacity=".5"/><path d="M14 20.6h12v-1.2H14v1.2Zm6 4.8a5.4 5.4 0 0 1-5.4-5.4h-1.2a6.6 6.6 0 0 0 6.6 6.6v-1.2ZM14.6 20a5.4 5.4 0 0 1 5.4-5.4v-1.2a6.6 6.6 0 0 0-6.6 6.6h1.2Zm5.4-5.4a5.4 5.4 0 0 1 5.4 5.4h1.2a6.6 6.6 0 0 0-6.6-6.6v1.2Zm5.4 5.4a5.4 5.4 0 0 1-5.4 5.4v1.2a6.6 6.6 0 0 0 6.6-6.6h-1.2ZM20 25.4c-.173 0-.383-.076-.624-.306-.245-.233-.492-.598-.713-1.095-.442-.993-.73-2.406-.73-3.999h-1.2c0 1.72.31 3.307.833 4.486.262.589.589 1.103.982 1.477.397.378.889.637 1.452.637v-1.2ZM17.933 20c0-1.593.288-3.006.73-3.999.22-.497.468-.862.713-1.095.241-.23.451-.306.624-.306v-1.2c-.563 0-1.055.26-1.452.637-.393.374-.72.888-.982 1.477-.524 1.179-.833 2.765-.833 4.486h1.2ZM20 14.6c.173 0 .383.076.624.306.245.233.492.598.713 1.095.442.993.73 2.406.73 3.999h1.2c0-1.72-.31-3.307-.833-4.486-.262-.589-.589-1.103-.982-1.477-.397-.378-.889-.637-1.452-.637v1.2Zm2.067 5.4c0 1.593-.288 3.006-.73 3.999-.22.497-.468.862-.713 1.095-.241.23-.451.306-.624.306v1.2c.563 0 1.055-.26 1.452-.637.393-.374.72-.888.982-1.477.524-1.179.833-2.765.833-4.486h-1.2Z" fill="#E61F4D"/></svg>