<svg width="601" height="442" viewBox="0 0 601 442" fill="none" xmlns="http://www.w3.org/2000/svg"><path fill-rule="evenodd" clip-rule="evenodd" d="M714.315 148.083c1.993 7.724 2.99 16.414 3.987 25.104-19.934.966-39.867.966-60.796.966-232.221 0-439.525-28.967-626.895-96.556 7.973-16.415 16.943-32.83 26.91-48.279C226.95 109.46 416.315 150.98 622.622 150.98c30.896 0 61.792-.965 91.692-2.896ZM360.503 571c167.438 0 307.966-110.074 348.829-258.771-14.95-.966-29.9-.966-44.85-.966-209.297 0-405.638 51.175-566.099 151.594C165.159 529.481 257.848 571 360.503 571Zm0-701C257.848-130 165.159-88.48 99.38-21.857 259.84 78.562 455.185 129.737 665.479 129.737c14.95 0 29.9 0 44.849-.966C668.469-19.926 527.941-130 360.503-130Zm360.789 324.43h-2.99c-257.137 0-492.347-15.449-705.631-67.59-5.98 20.277-9.967 40.554-11.96 61.796 294.013 24.14 656.795 20.277 721.577 20.277 0-5.793-.996-9.656-.996-14.483Zm.996 38.622c0 4.828 0 9.656-.996 13.518h-2.99c-257.137 0-492.347 15.449-705.631 67.59-5.98-20.277-9.967-40.554-11.96-61.796 295.009-23.174 656.795-20.277 721.577-19.312Zm-2.99 35.726c-.996 8.69-2.99 16.415-3.986 25.105-29.9-1.931-60.796-2.897-91.693-2.897-206.307 0-395.671 41.52-565.102 121.661-9.967-15.449-18.937-30.898-26.91-48.278 187.371-67.589 395.672-96.556 626.895-96.556 19.933 0 39.866 0 60.796.965Z" fill="#EEE"/></svg>