<svg width="171" height="40" viewBox="0 0 171 40" fill="none" xmlns="http://www.w3.org/2000/svg"><path fill-rule="evenodd" clip-rule="evenodd" d="M23.533 9.466c.066.263.099.559.132.854-.658.033-1.315.033-2.005.033-7.658 0-14.495-.986-20.674-3.286.263-.56.559-1.118.887-1.644C7.461 8.151 13.706 9.565 20.51 9.565a45.71 45.71 0 0 0 3.024-.1ZM11.865 23.862a11.9 11.9 0 0 0 11.504-8.809c-.493-.033-.986-.033-1.48-.033-6.901 0-13.376 1.742-18.668 5.16 2.202 2.269 5.259 3.682 8.644 3.682Zm0-23.862a11.882 11.882 0 0 0-8.611 3.681c5.292 3.418 11.734 5.16 18.669 5.16.493 0 .986 0 1.479-.032C22.022 3.747 17.387 0 11.865 0Zm11.898 11.043h-.098c-8.48 0-16.237-.525-23.27-2.3-.198.69-.33 1.38-.395 2.103 9.696.822 21.66.69 23.796.69 0-.197-.033-.328-.033-.492Zm.033 1.315c0 .165 0 .329-.033.46h-.098c-8.48 0-16.237.526-23.27 2.301A11.31 11.31 0 0 1 0 13.016c9.729-.79 21.66-.69 23.796-.658Zm-.098 1.216c-.033.296-.099.56-.132.855a45.727 45.727 0 0 0-3.024-.099c-6.803 0-13.048 1.414-18.636 4.142a13.063 13.063 0 0 1-.887-1.644c6.179-2.3 13.048-3.287 20.674-3.287.657 0 1.314 0 2.005.033Z" fill="#E30613"/><path d="M58.34 35.333h1.71l-.33 1.676h-1.742l.362-1.676Zm3.122 0h1.71l-.33 1.676h-1.741l.361-1.676Zm3.156 0h1.709l-.329 1.676h-1.742l.362-1.676Zm8.447-7.461h1.479l-.395 2.005h1.15l-.23 1.15h-1.15l-.788 3.977c-.033.099-.033.197-.033.296 0 .099-.033.164-.033.23 0 .131.033.23.131.329.066.065.198.098.362.098.131 0 .23 0 .361-.033.132 0 .263-.032.395-.065l-.23 1.216c-.165.033-.296.098-.46.098-.165.033-.33.033-.493.033-.526 0-.92-.098-1.184-.296-.263-.197-.394-.525-.394-.953 0-.098 0-.197.033-.328 0-.132.033-.263.066-.395l.821-4.207h-1.019l.23-1.15h1.02l.36-2.005Zm3.484-.592-1.94 9.729h1.513l.723-3.681c.131-.756.427-1.348.821-1.742.395-.395.92-.592 1.512-.592.296 0 .559.066.723.197.165.132.263.33.263.592 0 .066 0 .164-.033.263 0 .099-.032.23-.065.361l-.92 4.602h1.511l.953-4.733c.033-.164.066-.329.066-.46 0-.164.033-.296.033-.394 0-.526-.164-.954-.526-1.25-.361-.295-.854-.46-1.479-.46-.427 0-.854.099-1.216.263-.394.165-.756.46-1.117.822l.69-3.55h-1.512v.033Zm12.16 6.607h-5.094c0 .065 0 .098-.032.164v.164c0 .559.13.986.427 1.315.296.296.69.46 1.183.46.394 0 .756-.099 1.019-.296.296-.197.493-.493.624-.854h1.578a2.79 2.79 0 0 1-1.183 1.775c-.592.427-1.315.657-2.17.657-.953 0-1.709-.296-2.235-.855-.525-.558-.788-1.347-.788-2.366 0-1.282.361-2.3 1.051-3.123.69-.821 1.578-1.216 2.696-1.216.92 0 1.676.263 2.202.822.526.526.789 1.282.789 2.235 0 .164 0 .329-.033.526.033.131 0 .361-.033.592Zm-1.445-1.085v-.263c0-.526-.132-.92-.362-1.183-.263-.296-.591-.428-1.052-.428-.526 0-.986.165-1.314.494-.362.328-.592.788-.724 1.413h3.452v-.033Zm11.602-.657h-1.413c-.033-.428-.165-.756-.362-.954-.23-.197-.559-.328-.986-.328-.362 0-.624.066-.822.197a.646.646 0 0 0-.295.559c0 .328.361.69 1.117 1.051.164.066.296.132.362.198.821.427 1.347.756 1.577 1.051.23.296.362.625.362 1.02 0 .69-.263 1.248-.789 1.676-.526.427-1.216.624-2.104.624-.887 0-1.577-.23-2.103-.657-.493-.46-.756-1.052-.756-1.84v-.198h1.413c0 .526.132.92.395 1.183s.624.395 1.15.395c.427 0 .723-.099.953-.263.23-.165.329-.395.329-.723 0-.198-.099-.395-.263-.592-.164-.164-.592-.427-1.216-.723-.822-.395-1.348-.756-1.578-1.019a1.631 1.631 0 0 1-.361-1.052c0-.624.23-1.117.723-1.512.493-.394 1.117-.591 1.939-.591.855 0 1.512.197 2.005.624.493.427.723.986.723 1.71v.164Zm1.578 3.714c.23.46.493.788.887 1.019.362.23.789.361 1.282.361s.953-.131 1.38-.329c.428-.23.822-.558 1.151-.986.328-.427.558-.92.723-1.479.164-.558.263-1.15.263-1.742 0-.92-.23-1.643-.691-2.169-.46-.526-1.084-.789-1.906-.789-.46 0-.887.099-1.249.329-.361.197-.69.526-.986.953l.197-1.085h-1.347l-1.906 9.992h1.446l.756-4.075Zm4.141-3.189c0 .954-.197 1.71-.625 2.334-.427.625-.953.92-1.577.92-.493 0-.855-.164-1.118-.46-.263-.296-.394-.756-.394-1.314 0-.92.23-1.677.657-2.301.428-.625.986-.92 1.611-.92.46 0 .821.164 1.117.46.197.296.329.723.329 1.281Zm6.672-2.925-.296 1.61c-.098 0-.164-.032-.263-.032h-.23c-.526 0-.986.197-1.314.559-.329.361-.592.953-.724 1.742l-.69 3.385h-1.512l1.414-7.132h1.413l-.296 1.347c.329-.526.657-.92.986-1.183.329-.23.69-.361 1.118-.361h.197c.066.032.131.065.197.065Zm.46.165-1.413 7.132h1.512l1.38-7.132h-1.479Zm.526-2.63h1.479l-.296 1.545h-1.479l.296-1.545ZM120 32.31l-.92 4.733h-1.512l.92-4.602c.033-.131.066-.262.066-.361v-.263c0-.263-.099-.46-.263-.592-.165-.131-.395-.23-.723-.23-.625 0-1.118.197-1.512.592-.395.394-.69.986-.822 1.742l-.723 3.681h-1.479l1.38-7.132h1.381l-.23 1.084a3.978 3.978 0 0 1 1.183-.953c.427-.197.855-.328 1.282-.328.657 0 1.183.164 1.512.46.361.296.526.756.526 1.314 0 .132 0 .23-.033.362.033.197 0 .329-.033.493Zm4.207-1.348c-.657 0-1.183.296-1.578.855-.394.591-.624 1.315-.624 2.268 0 .558.131.986.394 1.282.263.295.658.46 1.151.46.657 0 1.183-.296 1.577-.855.395-.591.592-1.347.592-2.3 0-.526-.132-.954-.395-1.25-.23-.295-.624-.46-1.117-.46Zm.986 5.128c-.263.328-.559.591-.92.756a2.689 2.689 0 0 1-1.151.263c-.821 0-1.479-.263-1.939-.822-.46-.526-.69-1.282-.69-2.235 0-1.249.329-2.3 1.019-3.123.69-.821 1.512-1.248 2.531-1.248.558 0 1.019.131 1.38.394.362.263.625.624.789 1.117l.263-1.281h1.446l-1.413 7.198c-.198 1.019-.559 1.742-1.151 2.202-.558.46-1.38.69-2.432.69-.887 0-1.578-.197-2.071-.592-.493-.394-.723-.953-.723-1.643h1.512v.066c0 .295.132.526.362.69.23.164.591.263.986.263.657 0 1.15-.197 1.446-.592.329-.394.592-1.084.756-2.103Zm12.03-3.419c0-.558-.132-.986-.428-1.281-.296-.296-.69-.46-1.216-.46-.657 0-1.216.328-1.676.953-.46.624-.69 1.413-.69 2.3 0 .56.131 1.02.427 1.315.296.296.69.46 1.216.46.69 0 1.282-.296 1.709-.92.46-.624.658-1.413.658-2.367Zm-1.545-3.023c.986 0 1.742.296 2.268.821.558.56.821 1.315.821 2.301 0 1.282-.361 2.367-1.117 3.188-.756.822-1.709 1.25-2.86 1.25-.986 0-1.742-.297-2.268-.822-.558-.56-.821-1.315-.821-2.301 0-1.282.361-2.334 1.117-3.188.756-.822 1.709-1.25 2.86-1.25Zm7.724-2.4-.23 1.25c-.132-.034-.23-.034-.296-.066h-.23c-.197 0-.329.032-.428.131-.098.099-.197.329-.262.723l-.132.592h1.15l-.197 1.15h-1.15l-1.151 6.015h-1.479l1.151-6.015h-.986l.197-1.15h.986l.197-.953c.099-.592.329-1.02.658-1.315.328-.296.756-.427 1.347-.427.099 0 .23 0 .395.032.098 0 .295.033.46.033Zm4.404.033h1.479l-1.906 9.729H145.9l1.906-9.729Zm2.202 2.63-1.413 7.132h1.512l1.38-7.132h-1.479Zm.526-2.63h1.479l-.296 1.545h-1.479l.296-1.545Zm5.357-.033-.23 1.25c-.131-.034-.23-.034-.295-.066h-.231c-.197 0-.328.032-.427.131-.098.099-.197.329-.263.723l-.131.592h1.15l-.197 1.15h-1.15l-1.151 6.015h-1.479l1.151-6.015h-.987l.198-1.15h.986l.197-.953c.099-.592.329-1.02.657-1.315.329-.296.756-.427 1.348-.427.098 0 .23 0 .394.032.099 0 .263.033.46.033Zm5.555 6.64c.033-.23.066-.46.099-.658.033-.197.033-.361.033-.526 0-.953-.263-1.676-.789-2.235-.526-.526-1.249-.821-2.202-.821-1.085 0-1.972.394-2.696 1.216-.69.822-1.051 1.84-1.051 3.122 0 1.02.263 1.808.788 2.367.526.558 1.249.854 2.236.854.854 0 1.577-.23 2.169-.657.591-.427.986-1.019 1.183-1.775h-1.578c-.131.362-.328.657-.624.855a1.771 1.771 0 0 1-1.019.295c-.526 0-.92-.164-1.183-.46-.296-.296-.428-.723-.428-1.314v-.165c0-.066 0-.098.033-.164h5.029v.066Zm-1.479-1.085h-3.451c.131-.624.394-1.085.723-1.413.362-.329.789-.493 1.315-.493.46 0 .789.131 1.051.427.263.296.362.69.362 1.183v.164c.033.066.033.1 0 .132ZM168.118 2.104v.723h.329c.197 0 .329-.033.394-.099.099-.066.132-.131.132-.263 0-.131-.033-.23-.132-.296-.098-.065-.23-.098-.427-.098h-.296v.033Zm-.526-.296h.888c.329 0 .559.065.723.164a.525.525 0 0 1 .263.46.659.659 0 0 1-.132.427.786.786 0 0 1-.394.23l.526 1.052h-.559l-.46-.953h-.362v.953h-.493V1.808Zm.855-.559c.23 0 .46.033.69.131.197.099.395.23.592.395.164.164.296.361.361.559.099.197.132.427.132.69 0 .23-.033.46-.132.657-.098.197-.23.395-.394.559a1.864 1.864 0 0 1-.592.394c-.23.099-.46.132-.69.132-.23 0-.427-.033-.657-.132a2.158 2.158 0 0 1-.559-.394 2.151 2.151 0 0 1-.394-.559 1.466 1.466 0 0 1-.132-.657c0-.23.033-.46.132-.658.098-.23.23-.394.394-.591.164-.164.362-.296.559-.362.23-.131.46-.164.69-.164Zm0-.329c.296 0 .559.066.789.165.263.098.46.263.657.46s.329.427.427.657a1.98 1.98 0 0 1 0 1.578c-.098.263-.263.46-.46.657s-.427.329-.69.46a2.26 2.26 0 0 1-.789.165 2.26 2.26 0 0 1-.789-.165c-.263-.098-.46-.263-.657-.46s-.329-.427-.46-.657c-.099-.263-.164-.493-.164-.789 0-.263.065-.526.164-.789.098-.263.263-.493.46-.69.197-.197.394-.329.657-.427.329-.099.559-.165.855-.165Z" fill="#263F72"/><path fill-rule="evenodd" clip-rule="evenodd" d="M108.168 23.04c6.146 0 12.424-4.963 13.969-11.076C123.681 5.85 119.935.887 113.788.887c-6.146 0-12.424 4.963-13.968 11.077-1.545 6.113 2.202 11.076 8.348 11.076Zm1.052-5.094c-3.287 0-5.128-2.663-4.175-5.95.986-3.286 4.405-5.948 7.691-5.948 3.287 0 5.128 2.662 4.175 5.949-.986 3.287-4.437 5.949-7.691 5.949ZM152.243 23.04c6.146 0 12.424-4.963 13.969-11.076C167.757 5.85 164.01.887 157.863.887c-6.146 0-12.424 4.963-13.968 11.077-1.545 6.113 2.202 11.076 8.348 11.076Zm1.052-5.094c-3.287 0-5.128-2.663-4.174-5.95.986-3.286 4.404-5.948 7.691-5.948 3.286 0 5.127 2.662 4.174 5.949-.986 3.287-4.437 5.949-7.691 5.949ZM38.554 23.04c6.146 0 12.424-4.963 13.969-11.076C54.067 5.85 50.32.887 44.174.887c-6.146 0-12.424 4.963-13.968 11.077-.066.296-.132.591-.198.854l-4.733 17.387 6.212-3.286 3.945-14.988c.985-3.287 4.404-5.95 7.69-5.95 3.287 0 5.128 2.663 4.175 5.95-.756 2.564-3.32 4.963-5.72 5.719-1.84.592-4.995.329-5.981-1.545l-1.94 5.588c1.348.887 2.992 1.347 4.898 1.347ZM72.933 23.04c6.147.066 12.424-5.061 13.97-11.076C88.413 5.949 84.93 1.117 79.112.822h-7.79L70.04 5.785h7.625c3.189.065 4.963 2.76 4.01 6.08-.822 2.827-3.418 5.193-6.146 5.884-.986.131-2.334.065-3.484.065l.887-3.385 1.315-5.127h-5.094l-2.827 11.01-.69 2.761 7.296-.033Z" fill="#263F72"/><path fill-rule="evenodd" clip-rule="evenodd" d="m142.908 22.974 1.381-5.061c-5.423.46-6.869-2.367-5.949-6.18L141.331.856h-5.16l-2.991 10.879c-1.677 7.165 3.451 11.898 9.728 11.24Z" fill="#263F72"/><path fill-rule="evenodd" clip-rule="evenodd" d="m131.898 22.974 1.38-5.061c-5.423.46-6.869-2.367-5.949-6.18L130.32.856h-5.127l-2.991 10.879c-1.709 7.165 3.418 11.898 9.696 11.24ZM89.663.855l-1.348 5.193h6.902c.855 0 1.48.558 1.085 1.643-.427 1.183-1.38 1.643-2.334 1.643h-6.475l-3.516 13.64h5.094l2.17-8.447h1.117l2.53 8.447h5.358l-2.958-9.761c2.465-1.15 4.437-4.306 4.437-6.935 0-3.517-2.334-5.423-6.508-5.423h-5.554ZM66.13 14.527h-8.447c.263 1.578 1.15 2.761 2.728 3.222.69.098 3.122.065 4.864.065l-1.347 5.226h-2.893c-6.179.066-9.959-5.061-8.578-11.076C53.87 5.949 59.72 1.117 65.67.822h3.977l-1.282 4.963h-2.761c-2.3.065-4.996 1.446-6.574 3.45h8.447l-1.347 5.293Z" fill="#263F72"/></svg>